<svg width="111" height="27" viewBox="0 0 111 27" fill="none" xmlns="http://www.w3.org/2000/svg">
<g clip-path="url(#clip0_86_17)">
<path d="M31.8245 7.55509C31.6377 6.86788 31.2733 6.24138 30.7675 5.738C30.2617 5.23462 29.6323 4.87192 28.9418 4.68603C26.4142 4 16.2421 4 16.2421 4C16.2421 4 6.06968 4.02082 3.5424 4.70685C2.85201 4.89277 2.2226 5.25548 1.71687 5.75886C1.21114 6.26224 0.846736 6.88872 0.659951 7.57591C-0.104586 12.046 -0.401197 18.857 0.680868 23.1481C0.867652 23.8353 1.23206 24.4618 1.73779 24.9651C2.24352 25.4685 2.87293 25.8312 3.56332 26.0171C6.09079 26.7032 16.263 26.7032 16.263 26.7032C16.263 26.7032 26.4353 26.7032 28.9628 26.0171C29.6531 25.8312 30.2826 25.4685 30.7883 24.9651C31.294 24.4618 31.6584 23.8353 31.8452 23.1481C32.6514 18.6718 32.9 11.865 31.8243 7.55528" fill="#FF0000"/>
<path d="M13.0049 20.2168L21.4435 15.3519L13.0049 10.4868V20.2168Z" fill="white"/>
<path d="M97.8297 10.5907C98.9366 10.5907 99.7721 10.7985 100.357 11.1935C100.942 11.5886 101.36 12.2123 101.61 13.0648C101.861 13.9172 101.965 15.0813 101.965 16.5782V19.0109H96.5972V19.7592L96.6809 21.8175C96.7434 22.2749 96.848 22.6076 97.0149 22.8154C97.1823 23.0234 97.4536 23.1273 97.8087 23.1273C98.2892 23.1273 98.6235 22.9403 98.7904 22.5662C98.9785 22.1918 99.0619 21.5681 99.0828 20.7157L101.861 20.882C101.882 21.0067 101.882 21.1731 101.882 21.3809C101.882 22.6907 101.527 23.668 100.796 24.3124C100.065 24.9568 99.0619 25.2895 97.746 25.2895C96.1586 25.2895 95.0516 24.7906 94.4249 23.8135C93.7984 22.8362 93.4642 21.2976 93.4642 19.2395V16.7238C93.5351 13.1895 94.1596 10.601 97.8297 10.5907ZM59.2084 10.861V21.277C59.2084 21.9008 59.271 22.3582 59.4172 22.6284C59.7138 23.2064 60.4825 23.0587 60.9002 22.774C61.1413 22.6116 61.3357 22.3895 61.4642 22.1296V10.8608H64.66V25.0607H62.1534L61.8819 23.3143H61.8193C61.1301 24.6241 60.1064 25.2893 58.7488 25.2893C56.6592 25.2841 56.1479 23.7856 56.0261 22.2636L56.0182 22.1563C56.0031 21.9258 55.9943 21.6949 55.9917 21.464V10.861H59.2084ZM75.6888 10.861V21.277C75.6888 21.9008 75.7513 22.3582 75.8975 22.6284C76.1943 23.2064 76.9629 23.0587 77.3806 22.774C77.6217 22.6116 77.8161 22.3895 77.9445 22.1296V10.8608H81.1403V25.0607H78.6338L78.3623 23.3143H78.2997C77.6105 24.6241 76.5868 25.2893 75.2292 25.2893C73.1396 25.2841 72.6282 23.7856 72.5065 22.2636L72.4986 22.1563C72.4835 21.9258 72.4747 21.6949 72.4721 21.464V10.861H75.6888ZM49.9342 10.5907C50.9786 10.5907 51.8349 10.7985 52.4616 11.2351C53.0881 11.6717 53.5686 12.3371 53.861 13.2518C54.1535 14.1666 54.2997 15.3931 54.2997 16.9109V18.9691C54.2997 20.4869 54.1535 21.6928 53.861 22.6074C53.5686 23.5225 53.109 24.1877 52.4616 24.6243C51.8142 25.0401 50.9367 25.2687 49.8507 25.2687C48.7226 25.2895 47.8453 25.0609 47.1979 24.6451C46.5505 24.2085 46.0908 23.5431 45.8194 22.6284C45.5477 21.7136 45.4224 20.5077 45.4224 18.9901V16.9316C45.4224 15.4138 45.5687 14.1664 45.882 13.2516C46.1953 12.3161 46.6756 11.6507 47.3441 11.2351C48.0125 10.8191 48.8688 10.5907 49.9342 10.5907ZM86.1534 4.89404V12.3786H86.1744C86.4668 11.8381 86.8427 11.4015 87.365 11.0688C87.8527 10.7425 88.4273 10.5688 89.015 10.5699C89.7879 10.5699 90.3727 10.7777 90.8114 11.1726C91.25 11.5886 91.5634 12.233 91.7512 13.1271C91.9335 13.9931 92.0371 15.1909 92.0434 16.7014L92.0436 16.8487V19.094C92.0436 21.1937 91.7721 22.7531 91.2707 23.7511C90.7488 24.749 89.955 25.2481 88.8688 25.2481C88.2632 25.2481 87.72 25.1025 87.2188 24.8323C86.7756 24.575 86.4081 24.2063 86.153 23.7632L86.1116 23.6886H86.0491L85.7148 25.0401H83.062V4.89424L86.1534 4.89404ZM73.3701 5.62172V8.1995H70.1952V25.0607H67.0621V8.1997H63.8663V5.62191L73.3701 5.62172ZM38.9263 5.62172L38.9283 5.62965C38.9587 5.76467 39.381 7.63342 39.8456 9.81069L39.8822 9.98319L39.9376 10.2439L39.9747 10.419L39.9932 10.5068L40.0302 10.6829L40.0488 10.7711L40.0856 10.9478L40.1394 11.2062C40.4531 12.7138 40.7525 14.2259 40.9316 15.3101H41.0153C41.1868 14.3375 41.436 13.0929 41.7017 11.8222L41.7715 11.4903C41.8064 11.324 41.8416 11.158 41.877 10.9922L41.9316 10.7351C42.2925 9.05106 42.6641 7.36938 43.0466 5.69012L43.0525 5.66335L43.0621 5.62172H46.2579L42.5607 18.7406V25.0401H39.4067V18.7613H39.3858L35.7305 5.62152L38.9263 5.62172ZM49.8714 12.7943C49.4328 12.7943 49.1403 13.0232 48.9525 13.5014C48.7646 13.9796 48.681 14.7071 48.681 15.7261V20.1543C48.681 21.1939 48.7644 21.963 48.9316 22.4206C49.0988 22.878 49.4121 23.1067 49.8714 23.1067C50.3101 23.1067 50.6234 22.878 50.8114 22.4206C50.9995 21.963 51.083 21.1939 51.083 20.1543V15.7259C51.083 14.7071 50.9993 13.9586 50.8114 13.5012C50.6234 13.0232 50.3101 12.7943 49.8714 12.7943ZM86.7174 13.2103C86.4628 13.4443 86.2817 13.7328 86.174 14.0934L86.1534 14.1666V22.2333C86.4124 22.6699 86.7801 22.9609 87.4275 22.9818C87.7617 22.9818 88.0332 22.857 88.2423 22.6076C88.451 22.3582 88.5972 21.9423 88.6807 21.3601C88.7611 20.8013 88.8028 20.0317 88.806 19.0513V17.0773C88.806 15.9547 88.7642 15.1023 88.7016 14.4993C88.618 13.8964 88.5138 13.4598 88.3257 13.2103C87.9622 12.6904 87.1769 12.6968 86.7174 13.2103ZM97.7671 12.7321C97.4119 12.7528 97.1611 12.8568 97.0149 13.044C96.848 13.2518 96.7434 13.5637 96.6809 14.0211C96.6193 14.4692 96.5982 16.0356 96.5972 16.0982V17.1189H98.9366V16.2188V16.236C98.9352 16.5507 98.9287 16.0534 98.9143 15.4429L98.9123 15.3608C98.8992 14.8243 98.88 14.2261 98.8532 14.0211C98.7904 13.5428 98.6858 13.2101 98.5189 13.0232C98.3518 12.836 98.1014 12.7321 97.7671 12.7321Z" fill="white"/>
<path d="M101.736 2.18182V8H100.506V2.18182H101.736ZM107.614 2.18182V8H106.552L104.021 4.33807H103.978V8H102.748V2.18182H103.827L106.339 5.84091H106.39V2.18182H107.614Z" fill="#808080"/>
</g>
<defs>
<clipPath id="clip0_86_17">
<rect width="111" height="27" fill="white"/>
</clipPath>
</defs>
</svg>
